# xmcd
#
# Track frame offsets: 
#        177
#        9030
#        27550
#        39570
#        58657
#        79340
#        91302
#        102747
#        119827
#        139685
#        153452
#
# Disc length: 2500 seconds
#
# Revision: 4
# Processed by: cddbd v1.5.2PL0 Copyright (c) Steve Scherf et al.
# Submitted via: ExactAudioCopyFreeDBPlugin 1.0
#
DISCID=9209c20b
DTITLE=Various Artist - Mardi Gras in New Orleans  Vol. II
DYEAR=1989
DGENRE=New Orleans
TTITLE0=Dixie Cups - Iko Iko
TTITLE1=The Meters - Hey Pocky Away
TTITLE2=The Meters - Mardi Gras Mambo
TTITLE3=The Meters - They All Ask for You
TTITLE4=Olympia Brass Band - Mardi Gras in New Orleans
TTITLE5=Jake the Snake - Dat's Mardi Gras
TTITLE6=Sugaboy Crawford - Jockomo
TTITLE7=Olympia Brass Band - New Second Line
TTITLE8=Olympia Brass Band - Wade in the River
TTITLE9=A.J. Loria - If Ever I Cease to Love
TTITLE10=Mardi Gras Big Shots - Mardi Gras Medley
EXTD=
EXTT0=
EXTT1=
EXTT2=
EXTT3=
EXTT4=
EXTT5=
EXTT6=
EXTT7=
EXTT8=
EXTT9=
EXTT10=
PLAYORDER=
